<svg width="40" height="40" viewBox="0 0 40 40" fill="none" xmlns="http://www.w3.org/2000/svg">
<path d="M32.1329 30.366L25.3881 23.6213C26.7561 21.8742 27.4994 19.7192 27.4993 17.5002C27.4993 11.9867 23.0132 7.50059 17.4996 7.50059C11.9861 7.50059 7.5 11.9867 7.5 17.5002C7.5 23.0138 11.9861 27.4999 17.4996 27.4999C19.7184 27.4998 21.8732 26.757 23.6207 25.39L30.3654 32.1347C30.6 32.3691 30.918 32.5007 31.2496 32.5006C31.5812 32.5005 31.8991 32.3686 32.1335 32.1341C32.3679 31.8996 32.4995 31.5815 32.4994 31.2499C32.4993 30.9184 32.3674 30.6004 32.1329 30.366ZM9.99991 17.5002C9.99991 13.3641 13.3635 10.0005 17.4996 10.0005C21.6358 10.0005 24.9994 13.3641 24.9994 17.5002C24.9994 21.6363 21.6358 25 17.4996 25C13.3635 25 9.99991 21.6363 9.99991 17.5002Z" fill="#0D593B"/>
</svg>
