<svg width="41" height="40" viewBox="0 0 41 40" fill="none" xmlns="http://www.w3.org/2000/svg">
<path d="M22.8426 22.4107C20.8783 24.4375 20.7355 26.9643 20.5658 32.5C25.7265 32.5 29.289 32.4821 31.1283 30.6964C32.914 28.8571 32.9319 25.125 32.9319 20.1339C27.3962 20.3125 24.8694 20.4464 22.8426 22.4107ZM7.93188 20.1339C7.93188 25.125 7.94974 28.8571 9.73546 30.6964C11.5747 32.4821 15.1372 32.5 20.298 32.5C20.1194 26.9643 19.9855 24.4375 18.0212 22.4107C15.9944 20.4464 13.4676 20.3036 7.93188 20.1339ZM20.298 7.5C15.1462 7.5 11.5747 7.51786 9.73546 9.30357C7.94974 11.1429 7.93188 14.875 7.93188 19.8661C13.4676 19.6875 15.9944 19.5536 18.0212 17.5893C19.9855 15.5625 20.1283 13.0357 20.298 7.5ZM22.8426 17.5893C20.8783 15.5625 20.7355 13.0357 20.5658 7.5C25.7265 7.5 29.289 7.51786 31.1283 9.30357C32.914 11.1429 32.9319 14.875 32.9319 19.8661C27.3962 19.6875 24.8694 19.5536 22.8426 17.5893Z" fill="white"/>
<path d="M32.9319 20.1339V19.8661C27.3962 19.6875 24.8694 19.5536 22.8426 17.5893C20.8783 15.5625 20.7355 13.0357 20.5658 7.5H20.298C20.1194 13.0357 19.9855 15.5625 18.0212 17.5893C15.9944 19.5536 13.4676 19.6964 7.93188 19.8661V20.1339C13.4676 20.3125 15.9944 20.4464 18.0212 22.4107C19.9855 24.4375 20.1283 26.9643 20.298 32.5H20.5658C20.7444 26.9643 20.8783 24.4375 22.8426 22.4107C24.8694 20.4464 27.3962 20.3036 32.9319 20.1339Z" fill="#0D593B"/>
</svg>
