<svg width="138" height="28" viewBox="0 0 138 28" fill="none" xmlns="http://www.w3.org/2000/svg">
<path d="M6.94182 7.5H5.89455V1.23091H1.41455V7.5H0.352727V0.227273H6.94182V7.5ZM13.468 0.125454C14.4958 0.125454 15.3589 0.48909 16.057 1.21636C16.7552 1.94364 17.1043 2.82606 17.1043 3.86364C17.1043 4.90121 16.7552 5.78364 16.057 6.51091C15.3589 7.22848 14.4958 7.58727 13.468 7.58727C12.8861 7.58727 12.3528 7.44667 11.868 7.16545C11.3928 6.87455 11.0292 6.49152 10.777 6.01636V10.1764H9.71523V0.227273H10.4716L10.5152 1.87091C10.7964 1.34727 11.1989 0.925454 11.7225 0.605454C12.2461 0.285454 12.828 0.125454 13.468 0.125454ZM13.3807 1.14364C12.6437 1.14364 12.0134 1.40545 11.4898 1.92909C10.9661 2.44303 10.7043 3.08788 10.7043 3.86364C10.7043 4.63939 10.9661 5.28909 11.4898 5.81273C12.0134 6.32667 12.6437 6.58364 13.3807 6.58364C14.108 6.58364 14.7334 6.32667 15.257 5.81273C15.7807 5.28909 16.0425 4.63939 16.0425 3.86364C16.0425 3.08788 15.7807 2.44303 15.257 1.92909C14.7334 1.40545 14.108 1.14364 13.3807 1.14364ZM22.6599 0.125454C23.6975 0.125454 24.5799 0.493939 25.3072 1.23091C26.0344 1.95818 26.3981 2.83576 26.3981 3.86364C26.3981 4.89151 26.0344 5.76909 25.3072 6.49636C24.5799 7.22364 23.6975 7.58727 22.6599 7.58727C21.6223 7.58727 20.7399 7.22364 20.0126 6.49636C19.295 5.76909 18.9362 4.89151 18.9362 3.86364C18.9362 2.82606 19.2999 1.94364 20.0272 1.21636C20.7544 0.48909 21.632 0.125454 22.6599 0.125454ZM22.6453 1.14364C21.9181 1.14364 21.2926 1.40545 20.769 1.92909C20.2453 2.44303 19.9835 3.08788 19.9835 3.86364C19.9835 4.63939 20.2405 5.28424 20.7544 5.79818C21.2781 6.31212 21.9084 6.56909 22.6453 6.56909C23.3823 6.56909 24.0126 6.31212 24.5363 5.79818C25.0599 5.28424 25.3217 4.63939 25.3217 3.86364C25.3217 3.08788 25.0599 2.44303 24.5363 1.92909C24.0126 1.40545 23.3823 1.14364 22.6453 1.14364ZM31.9064 0.125454C32.6918 0.125454 33.3658 0.314545 33.9282 0.692727C34.4906 1.07091 34.9076 1.5897 35.1791 2.24909C35.2955 2.5303 35.3633 2.85515 35.3827 3.22364C35.4118 3.59212 35.3876 3.88788 35.31 4.11091H29.2882C29.2882 4.87697 29.5403 5.48788 30.0445 5.94364C30.5585 6.3897 31.2179 6.61758 32.0227 6.62727C32.9439 6.62727 33.7827 6.36545 34.5391 5.84182L35.1064 6.48182C34.1658 7.21879 33.1379 7.58727 32.0227 7.58727C30.8979 7.57758 29.9815 7.22848 29.2736 6.54C28.5658 5.85152 28.2118 4.95939 28.2118 3.86364C28.2118 2.80667 28.5512 1.91939 29.23 1.20182C29.9185 0.484242 30.8106 0.125454 31.9064 0.125454ZM31.9064 1.1C31.1888 1.1 30.5876 1.32303 30.1027 1.76909C29.6276 2.21515 29.3706 2.75818 29.3318 3.39818H34.35C34.3694 3.14606 34.3161 2.8697 34.19 2.56909C34.0058 2.12303 33.7149 1.76909 33.3173 1.50727C32.9197 1.23576 32.4494 1.1 31.9064 1.1ZM43.1074 7.5L41.9147 5.66727C41.5462 5.09515 41.2456 4.71697 41.0128 4.53273C40.7898 4.34848 40.431 4.25636 39.9365 4.25636H38.831V7.5H37.7692V0.227273H38.831V3.23818H39.7765C40.271 3.23818 40.6298 3.14606 40.8528 2.96182C41.0856 2.77758 41.3862 2.39939 41.7547 1.82727L42.8019 0.227273H43.9947L42.6274 2.29273C42.3462 2.71939 42.1086 3.03939 41.9147 3.25273C41.7304 3.46606 41.5316 3.62121 41.3183 3.71818C41.5801 3.79576 41.8128 3.94606 42.0165 4.16909C42.2298 4.39212 42.4868 4.73636 42.7874 5.20182L44.2856 7.5H43.1074ZM49.0143 1.23091V7.5H47.9525V1.23091H45.2907V0.227273H51.6761V1.23091H49.0143ZM64.7827 7.5H63.7355V1.23091H59.2555V7.5H58.1936V0.227273H64.7827V7.5ZM74.0143 7.5H72.967V2.00182L68.1234 7.5H67.4834V0.227273H68.5452V5.72545L73.3889 0.227273H74.0143V7.5ZM79.6109 1.23091V7.5H78.5491V1.23091H75.8873V0.227273H82.2727V1.23091H79.6109ZM87.1769 0.125454C88.2145 0.125454 89.0969 0.493939 89.8242 1.23091C90.5515 1.95818 90.9151 2.83576 90.9151 3.86364C90.9151 4.89151 90.5515 5.76909 89.8242 6.49636C89.0969 7.22364 88.2145 7.58727 87.1769 7.58727C86.1394 7.58727 85.2569 7.22364 84.5297 6.49636C83.8121 5.76909 83.4533 4.89151 83.4533 3.86364C83.4533 2.82606 83.8169 1.94364 84.5442 1.21636C85.2715 0.48909 86.1491 0.125454 87.1769 0.125454ZM87.1624 1.14364C86.4351 1.14364 85.8097 1.40545 85.286 1.92909C84.7624 2.44303 84.5006 3.08788 84.5006 3.86364C84.5006 4.63939 84.7575 5.28424 85.2715 5.79818C85.7951 6.31212 86.4254 6.56909 87.1624 6.56909C87.8994 6.56909 88.5297 6.31212 89.0533 5.79818C89.5769 5.28424 89.8388 4.63939 89.8388 3.86364C89.8388 3.08788 89.5769 2.44303 89.0533 1.92909C88.5297 1.40545 87.8994 1.14364 87.1624 1.14364ZM100.642 7.5H99.5798V2.00182L96.9034 5.04182L94.227 2.00182V7.5H93.1652V0.227273H93.8052L96.9034 3.74727L100.002 0.227273H100.642V7.5ZM109.925 7.5H108.863V4.34364H104.398V7.5H103.336V0.227273H104.398V3.32545H108.863V0.227273H109.925V7.5ZM119.156 7.5H118.109V2.00182L113.265 7.5H112.625V0.227273H113.687V5.72545L118.531 0.227273H119.156V7.5ZM127.269 7.5L126.077 5.66727C125.708 5.09515 125.408 4.71697 125.175 4.53273C124.952 4.34848 124.593 4.25636 124.098 4.25636H122.993V7.5H121.931V0.227273H122.993V3.23818H123.938C124.433 3.23818 124.792 3.14606 125.015 2.96182C125.248 2.77758 125.548 2.39939 125.917 1.82727L126.964 0.227273H128.157L126.789 2.29273C126.508 2.71939 126.271 3.03939 126.077 3.25273C125.892 3.46606 125.694 3.62121 125.48 3.71818C125.742 3.79576 125.975 3.94606 126.178 4.16909C126.392 4.39212 126.649 4.73636 126.949 5.20182L128.448 7.5H127.269ZM137.135 7.5H136.379L136.335 5.85636C136.054 6.38 135.651 6.80182 135.128 7.12182C134.604 7.43212 134.022 7.58727 133.382 7.58727C132.354 7.58727 131.491 7.22848 130.793 6.51091C130.095 5.78364 129.746 4.90121 129.746 3.86364C129.746 2.82606 130.095 1.94364 130.793 1.21636C131.491 0.48909 132.354 0.125454 133.382 0.125454C134.013 0.125454 134.59 0.285454 135.113 0.605454C135.647 0.915757 136.054 1.33273 136.335 1.85636L136.379 0.227273H137.135V7.5ZM131.564 5.79818C132.088 6.31212 132.718 6.56909 133.455 6.56909C134.192 6.56909 134.822 6.31212 135.346 5.79818C135.87 5.28424 136.131 4.63939 136.131 3.86364C136.131 3.08788 135.87 2.44303 135.346 1.92909C134.822 1.40545 134.192 1.14364 133.455 1.14364C132.728 1.14364 132.102 1.40545 131.579 1.92909C131.055 2.44303 130.793 3.08788 130.793 3.86364C130.793 4.63939 131.05 5.28424 131.564 5.79818ZM14.1467 27.5H12.6339V16.8333L7.57212 23.2721L2.5103 16.8333V27.5H0.997576V13.9242H1.85091L7.57212 21.2164L13.2933 13.9242H14.1467V27.5ZM27.27 17.6673C28.6534 17.6673 29.83 18.1586 30.7997 19.1412C31.7694 20.1109 32.2542 21.281 32.2542 22.6515C32.2542 24.022 31.7694 25.1921 30.7997 26.1618C29.83 27.1315 28.6534 27.6164 27.27 27.6164C25.8866 27.6164 24.71 27.1315 23.7403 26.1618C22.7835 25.1921 22.3052 24.022 22.3052 22.6515C22.3052 21.2681 22.79 20.0915 23.7597 19.1218C24.7294 18.1521 25.8995 17.6673 27.27 17.6673ZM27.2506 19.0248C26.2809 19.0248 25.447 19.3739 24.7488 20.0721C24.0506 20.7574 23.7015 21.6172 23.7015 22.6515C23.7015 23.6859 24.0441 24.5457 24.7294 25.2309C25.4276 25.9162 26.268 26.2588 27.2506 26.2588C28.2332 26.2588 29.0736 25.9162 29.7718 25.2309C30.47 24.5457 30.8191 23.6859 30.8191 22.6515C30.8191 21.6172 30.47 20.7574 29.7718 20.0721C29.0736 19.3739 28.2332 19.0248 27.2506 19.0248ZM45.0483 17.6673C46.3671 17.6673 47.395 18.0745 48.132 18.8891C48.8819 19.7036 49.2568 20.8349 49.2568 22.283V27.5H47.8605V22.3412C47.8605 21.2293 47.5889 20.4018 47.0459 19.8588C46.5158 19.3028 45.7853 19.0248 44.8544 19.0248C43.833 19.0248 43.0184 19.361 42.4108 20.0333C41.816 20.7057 41.5186 21.656 41.5186 22.8842V27.5H40.1029V17.803H41.1114L41.1889 20.0139C41.551 19.2253 42.0811 18.637 42.7792 18.2491C43.4774 17.8612 44.2338 17.6673 45.0483 17.6673ZM69.0324 13.9242H73.3185C75.0769 13.9242 76.5056 14.3703 77.6045 15.2624C78.7035 16.1545 79.253 17.3699 79.253 18.9085C79.253 20.4471 78.7035 21.6624 77.6045 22.5545C76.5056 23.4467 75.0769 23.8927 73.3185 23.8927H70.5452V27.5H69.0324V13.9242ZM70.5452 22.477H73.4155C74.6825 22.477 75.7298 22.1796 76.5573 21.5848C77.3977 20.9901 77.8179 20.098 77.8179 18.9085C77.8179 17.7319 77.3977 16.8463 76.5573 16.2515C75.7298 15.6438 74.6825 15.34 73.4155 15.34H70.5452V22.477ZM86.9802 27.5V13.9242H88.3959V27.5H86.9802ZM106.078 27.5H105.069L105.011 25.3085C104.636 26.0067 104.1 26.5691 103.401 26.9958C102.703 27.4095 101.927 27.6164 101.074 27.6164C99.7036 27.6164 98.5529 27.138 97.622 26.1812C96.6911 25.2115 96.2256 24.0349 96.2256 22.6515C96.2256 21.2681 96.6911 20.0915 97.622 19.1218C98.5529 18.1521 99.7036 17.6673 101.074 17.6673C101.914 17.6673 102.684 17.8806 103.382 18.3073C104.093 18.721 104.636 19.277 105.011 19.9752L105.069 17.803H106.078V27.5ZM98.6499 25.2309C99.348 25.9162 100.188 26.2588 101.171 26.2588C102.154 26.2588 102.994 25.9162 103.692 25.2309C104.39 24.5457 104.74 23.6859 104.74 22.6515C104.74 21.6172 104.39 20.7574 103.692 20.0721C102.994 19.3739 102.154 19.0248 101.171 19.0248C100.201 19.0248 99.3674 19.3739 98.6692 20.0721C97.9711 20.7574 97.622 21.6172 97.622 22.6515C97.622 23.6859 97.9646 24.5457 98.6499 25.2309ZM119.48 17.6673C120.799 17.6673 121.827 18.0745 122.564 18.8891C123.314 19.7036 123.689 20.8349 123.689 22.283V27.5H122.292V22.3412C122.292 21.2293 122.021 20.4018 121.478 19.8588C120.948 19.3028 120.217 19.0248 119.286 19.0248C118.265 19.0248 117.45 19.361 116.843 20.0333C116.248 20.7057 115.95 21.656 115.95 22.8842V27.5H114.535V17.803H115.543L115.621 20.0139C115.983 19.2253 116.513 18.637 117.211 18.2491C117.909 17.8612 118.666 17.6673 119.48 17.6673ZM134.303 19.1412V27.5H132.888V19.1412H131.472V17.803H132.888V14.5448H134.303V17.803H135.719V19.1412H134.303Z" fill="white"/>
</svg>
