<svg width="177" height="21" viewBox="0 0 177 21" fill="none" xmlns="http://www.w3.org/2000/svg">
<path d="M18.456 20.096H15.144V17H4.2V20.096H0.888V13.88H3.12L8.736 0.199999H10.704L16.248 13.88H18.456V20.096ZM9.672 6.272L6.672 13.88H12.696L9.672 6.272ZM26.7062 4.832C28.4182 4.832 29.8742 5.44 31.0742 6.656C32.2742 7.856 32.8742 9.304 32.8742 11C32.8742 12.696 32.2742 14.144 31.0742 15.344C29.8742 16.544 28.4182 17.144 26.7062 17.144C24.9942 17.144 23.5382 16.544 22.3382 15.344C21.1542 14.144 20.5622 12.696 20.5622 11C20.5622 9.288 21.1622 7.832 22.3622 6.632C23.5622 5.432 25.0102 4.832 26.7062 4.832ZM28.8662 8.696C28.2582 8.088 27.5382 7.784 26.7062 7.784C25.8742 7.784 25.1462 8.088 24.5222 8.696C23.9142 9.288 23.6102 10.056 23.6102 11C23.6102 11.944 23.9142 12.712 24.5222 13.304C25.1302 13.896 25.8582 14.192 26.7062 14.192C27.5382 14.192 28.2582 13.896 28.8662 13.304C29.4902 12.712 29.8022 11.944 29.8022 11C29.8022 10.056 29.4902 9.288 28.8662 8.696ZM49.0513 17H46.0033V9.92L42.6433 13.784L39.2833 9.92V17H36.2353V5H38.2033L42.6433 10.136L47.0833 5H49.0513V17ZM65.1071 13.928L63.9071 17H60.2351L67.1471 0.199999H69.0911L75.9071 17H72.2351L71.0351 13.928H65.1071ZM68.0831 6.2L66.2591 10.784H69.8831L68.0831 6.2ZM84.2653 9.488L80.9773 17H77.7373L83.2813 5H85.2493L90.7933 17H87.5773L84.2653 9.488ZM98.3078 4.832C100.02 4.832 101.476 5.44 102.676 6.656C103.876 7.856 104.476 9.304 104.476 11C104.476 12.696 103.876 14.144 102.676 15.344C101.476 16.544 100.02 17.144 98.3078 17.144C96.5958 17.144 95.1398 16.544 93.9398 15.344C92.7558 14.144 92.1638 12.696 92.1638 11C92.1638 9.288 92.7638 7.832 93.9638 6.632C95.1638 5.432 96.6118 4.832 98.3078 4.832ZM100.468 8.696C99.8598 8.088 99.1398 7.784 98.3078 7.784C97.4758 7.784 96.7478 8.088 96.1238 8.696C95.5158 9.288 95.2118 10.056 95.2118 11C95.2118 11.944 95.5158 12.712 96.1238 13.304C96.7318 13.896 97.4598 14.192 98.3078 14.192C99.1398 14.192 99.8598 13.896 100.468 13.304C101.092 12.712 101.404 11.944 101.404 11C101.404 10.056 101.092 9.288 100.468 8.696ZM116.025 17L113.961 13.808C113.577 13.216 113.233 12.816 112.929 12.608C112.641 12.4 112.225 12.296 111.681 12.296H110.841V17H107.793V5H110.841V9.368H111.585C112.129 9.368 112.545 9.264 112.833 9.056C113.121 8.848 113.457 8.448 113.841 7.856L115.713 5H119.097L116.409 9.056C115.801 10 115.233 10.584 114.705 10.808C115.249 10.984 115.857 11.584 116.529 12.608L119.409 17H116.025ZM133.016 17H130.976L130.808 15.296C129.832 16.528 128.504 17.144 126.824 17.144C125.144 17.144 123.744 16.552 122.624 15.368C121.52 14.184 120.968 12.728 120.968 11C120.968 9.272 121.52 7.816 122.624 6.632C123.744 5.432 125.144 4.832 126.824 4.832C128.504 4.832 129.832 5.456 130.808 6.704L130.976 5H133.016V17ZM127.112 14.192C127.944 14.192 128.664 13.896 129.272 13.304C129.896 12.712 130.208 11.944 130.208 11C130.208 10.056 129.896 9.288 129.272 8.696C128.664 8.088 127.944 7.784 127.112 7.784C126.28 7.784 125.552 8.088 124.928 8.696C124.32 9.288 124.016 10.056 124.016 11C124.016 11.944 124.32 12.712 124.928 13.304C125.536 13.896 126.264 14.192 127.112 14.192ZM144.223 10.736C144.959 10.896 145.511 11.208 145.879 11.672C146.263 12.136 146.455 12.72 146.455 13.424C146.455 14.624 146.007 15.544 145.111 16.184C144.231 16.824 143.047 17.152 141.559 17.168H141.343C140.175 17.168 139.079 16.936 138.055 16.472C137.047 15.992 136.335 15.464 135.919 14.888L137.575 13.088C138.599 13.952 139.831 14.392 141.271 14.408H141.487C142.063 14.392 142.527 14.264 142.879 14.024C143.231 13.784 143.407 13.44 143.407 12.992C143.407 12.192 142.903 11.784 141.895 11.768H139.975V9.896H141.607C142.423 9.896 142.831 9.544 142.831 8.84C142.831 8.04 142.295 7.624 141.223 7.592H141.079C140.007 7.592 138.951 7.992 137.911 8.792L136.303 7.04C136.911 6.416 137.647 5.896 138.511 5.48C139.391 5.048 140.327 4.832 141.319 4.832H141.487C142.719 4.848 143.759 5.152 144.607 5.744C145.455 6.336 145.879 7.136 145.879 8.144C145.879 9.456 145.327 10.32 144.223 10.736ZM161.044 17H157.996V9.92L151.852 17H149.884V5H152.932V12.08L159.076 5H161.044V17ZM176.278 17H173.23V9.92L167.086 17H165.118V5H168.166V12.08L174.31 5H176.278V17Z" fill="#0D593B"/>
</svg>
