<svg width="81" height="35" viewBox="0 0 81 35" fill="none" xmlns="http://www.w3.org/2000/svg">
<path d="M78.0514 0H2.42383C1.31926 0 0.423828 0.89543 0.423828 2V33C0.423828 34.1046 1.31926 35 2.42383 35H78.0514C79.156 35 80.0514 34.1046 80.0514 33V2C80.0514 0.895431 79.156 0 78.0514 0Z" fill="#005BFF"/>
<g clip-path="url(#clip0_128_706)">
<path d="M46.7667 11.5017C42.1011 11.5017 38.3203 14.2017 38.3203 17.5335C38.3203 20.8654 42.1019 23.5653 46.7667 23.5653C51.4316 23.5653 55.2132 20.8646 55.2132 17.5335C55.2132 14.2024 51.4316 11.5017 46.7667 11.5017ZM46.7667 20.7511C43.5455 20.7511 41.1346 19.0531 41.1346 17.5335C41.1346 16.014 43.5455 14.3152 46.7667 14.3152C49.988 14.3152 52.3989 16.014 52.3989 17.5335C52.3989 19.0531 49.9961 20.7511 46.7667 20.7511Z" fill="white"/>
<path d="M19.0499 11.5017C15.7181 11.4995 13.0159 14.1988 13.0137 17.5298C13.0115 20.8609 15.7107 23.5631 19.0418 23.5661C22.3729 23.5675 25.075 20.869 25.078 17.538V17.5306C25.078 14.2002 22.3788 11.5017 19.0499 11.5017ZM22.266 17.5298C22.266 19.3067 20.8268 20.7474 19.0499 20.7496C17.2723 20.7518 15.8287 19.3119 15.8264 17.5335C15.8242 15.7559 17.2642 14.3123 19.0425 14.3108C20.8201 14.3086 22.2637 15.7485 22.266 17.5262V17.5298Z" fill="white"/>
<path d="M28.3336 11.7724C27.4607 11.7724 26.7219 12.5664 26.9025 13.4704C27.0353 14.1339 27.6568 14.5866 28.3336 14.5866H32.2612L26.149 22.6511C25.9478 22.9151 26.1372 23.2955 26.469 23.2955H36.0575C36.7329 23.2955 37.3559 22.8421 37.4871 22.1792C37.6692 21.2753 36.9813 20.4813 36.1099 20.4813H31.3241L37.4318 12.4234C37.6338 12.1565 37.4444 11.7724 37.1081 11.7724H28.3329H28.3336Z" fill="white"/>
<path d="M68.3093 13.1799V22.8885C68.3093 22.9792 68.2784 23.0677 68.2223 23.1385C68.0837 23.3162 67.8279 23.3471 67.6509 23.2078L60.0391 17.1649V21.888C60.0391 22.6651 59.4095 23.2955 58.6309 23.2955C57.8523 23.2955 57.2227 22.6651 57.2227 21.888V12.1786C57.2227 12.085 57.2544 11.9936 57.3141 11.9206C57.4549 11.748 57.7085 11.7222 57.8818 11.8631L65.4929 17.903V13.1799C65.4929 12.402 66.1233 11.7716 66.9011 11.7716C67.6789 11.7716 68.3093 12.402 68.3093 13.1799Z" fill="white"/>
</g>
<defs>
<clipPath id="clip0_128_706">
<rect width="55.2969" height="12.0643" fill="white" transform="translate(12.5898 11.5017)"/>
</clipPath>
</defs>
</svg>
