<?xml version="1.0" encoding="utf-8"?><svg viewBox="0 0 177 40" xmlns="http://www.w3.org/2000/svg" xmlns:xlink="http://www.w3.org/1999/xlink"><style>:root>svg{display:none}:root>svg:target{display:block}</style><svg viewBox="0 0 20 30" id="left-arrow" xmlns="http://www.w3.org/2000/svg"><path d="M18.054 1.207 1.502 15l16.552 13.793"/></svg><svg viewBox="0 0 177 21" id="logo" xmlns="http://www.w3.org/2000/svg"><path d="M18.456 20.096h-3.312V17H4.2v3.096H.888V13.88H3.12L8.736.2h1.968l5.544 13.68h2.208v6.216ZM9.672 6.272l-3 7.608h6.024L9.672 6.272Zm17.034-1.44c1.712 0 3.168.608 4.368 1.824 1.2 1.2 1.8 2.648 1.8 4.344 0 1.696-.6 3.144-1.8 4.344-1.2 1.2-2.656 1.8-4.368 1.8-1.712 0-3.168-.6-4.368-1.8-1.184-1.2-1.776-2.648-1.776-4.344 0-1.712.6-3.168 1.8-4.368 1.2-1.2 2.648-1.8 4.344-1.8Zm2.16 3.864c-.608-.608-1.328-.912-2.16-.912-.832 0-1.56.304-2.184.912-.608.592-.912 1.36-.912 2.304 0 .944.304 1.712.912 2.304a3.02 3.02 0 0 0 2.184.888c.832 0 1.552-.296 2.16-.888.624-.592.936-1.36.936-2.304 0-.944-.312-1.712-.936-2.304ZM49.051 17h-3.048V9.92l-3.36 3.864-3.36-3.864V17h-3.048V5h1.968l4.44 5.136L47.083 5h1.968v12Zm16.056-3.072L63.907 17h-3.672L67.147.2h1.944L75.907 17h-3.672l-1.2-3.072h-5.928ZM68.083 6.2l-1.824 4.584h3.624l-1.8-4.584Zm16.182 3.288L80.977 17h-3.24l5.544-12h1.968l5.544 12h-3.216l-3.312-7.512Zm14.043-4.656c1.712 0 3.168.608 4.368 1.824 1.2 1.2 1.8 2.648 1.8 4.344 0 1.696-.6 3.144-1.8 4.344-1.2 1.2-2.656 1.8-4.368 1.8-1.712 0-3.168-.6-4.368-1.8-1.184-1.2-1.776-2.648-1.776-4.344 0-1.712.6-3.168 1.8-4.368 1.2-1.2 2.648-1.8 4.344-1.8Zm2.16 3.864c-.608-.608-1.328-.912-2.16-.912-.832 0-1.56.304-2.184.912-.608.592-.912 1.36-.912 2.304 0 .944.304 1.712.912 2.304a3.02 3.02 0 0 0 2.184.888c.832 0 1.552-.296 2.16-.888.624-.592.936-1.36.936-2.304 0-.944-.312-1.712-.936-2.304ZM116.025 17l-2.064-3.192c-.384-.592-.728-.992-1.032-1.2-.288-.208-.704-.312-1.248-.312h-.84V17h-3.048V5h3.048v4.368h.744c.544 0 .96-.104 1.248-.312.288-.208.624-.608 1.008-1.2L115.713 5h3.384l-2.688 4.056c-.608.944-1.176 1.528-1.704 1.752.544.176 1.152.776 1.824 1.8l2.88 4.392h-3.384Zm16.991 0h-2.04l-.168-1.704c-.976 1.232-2.304 1.848-3.984 1.848-1.68 0-3.08-.592-4.2-1.776-1.104-1.184-1.656-2.64-1.656-4.368 0-1.728.552-3.184 1.656-4.368 1.12-1.2 2.52-1.8 4.2-1.8 1.68 0 3.008.624 3.984 1.872L130.976 5h2.04v12Zm-5.904-2.808c.832 0 1.552-.296 2.16-.888.624-.592.936-1.36.936-2.304 0-.944-.312-1.712-.936-2.304-.608-.608-1.328-.912-2.16-.912-.832 0-1.56.304-2.184.912-.608.592-.912 1.36-.912 2.304 0 .944.304 1.712.912 2.304a3.02 3.02 0 0 0 2.184.888Zm17.111-3.456c.736.16 1.288.472 1.656.936.384.464.576 1.048.576 1.752 0 1.2-.448 2.12-1.344 2.76-.88.64-2.064.968-3.552.984h-.216a7.873 7.873 0 0 1-3.288-.696c-1.008-.48-1.72-1.008-2.136-1.584l1.656-1.8c1.024.864 2.256 1.304 3.696 1.32h.216c.576-.016 1.04-.144 1.392-.384.352-.24.528-.584.528-1.032 0-.8-.504-1.208-1.512-1.224h-1.92V9.896h1.632c.816 0 1.224-.352 1.224-1.056 0-.8-.536-1.216-1.608-1.248h-.144c-1.072 0-2.128.4-3.168 1.2l-1.608-1.752a7.726 7.726 0 0 1 2.208-1.56 6.289 6.289 0 0 1 2.808-.648h.168c1.232.016 2.272.32 3.12.912.848.592 1.272 1.392 1.272 2.4 0 1.312-.552 2.176-1.656 2.592ZM161.044 17h-3.048V9.92L151.852 17h-1.968V5h3.048v7.08L159.076 5h1.968v12Zm15.234 0h-3.048V9.92L167.086 17h-1.968V5h3.048v7.08L174.31 5h1.968v12Z"/></svg><svg viewBox="0 0 20 30" id="right-arrow" xmlns="http://www.w3.org/2000/svg"><path d="M1.503 28.793 18.055 15 1.503 1.207"/></svg><svg viewBox="0 0 40 40" id="search" xmlns="http://www.w3.org/2000/svg"><path d="m32.133 30.366-6.745-6.745a9.928 9.928 0 0 0 2.111-6.12c0-5.514-4.486-10-10-10-5.513 0-9.999 4.486-9.999 10 0 5.513 4.486 9.999 10 9.999a9.935 9.935 0 0 0 6.12-2.11l6.745 6.745a1.25 1.25 0 0 0 1.768-1.769ZM10 17.5c0-4.136 3.364-7.5 7.5-7.5s7.5 3.364 7.5 7.5-3.364 7.5-7.5 7.5-7.5-3.364-7.5-7.5Z"/></svg></svg>