<svg width="36" height="35" viewBox="0 0 36 35" fill="none" xmlns="http://www.w3.org/2000/svg">
<rect x="0.423828" width="35" height="35" rx="2" fill="#2FA8DF"/>
<path d="M24.6354 10.7711L24.3474 10.8756L8.71478 16.5079C8.604 16.5422 8.50772 16.6122 8.44102 16.7071C8.37433 16.8019 8.34099 16.9162 8.34624 17.0321C8.35149 17.1479 8.39503 17.2587 8.47003 17.3472C8.54503 17.4356 8.64725 17.4967 8.76068 17.5208L12.8073 18.6286L13.5622 20.8442L14.3171 23.0598C14.3604 23.1684 14.4297 23.2648 14.5187 23.3405C14.6078 23.4163 14.714 23.4692 14.8282 23.4946C14.9423 23.5201 15.061 23.5172 15.1738 23.4864C15.2866 23.4556 15.3902 23.3977 15.4755 23.3177L17.5661 21.3427L21.6713 24.1264C22.1729 24.4682 22.8883 24.215 23.0164 23.6516L25.7353 11.6384C25.8682 11.0433 25.2415 10.5543 24.6354 10.7711ZM22.6398 13.4377L15.5768 19.211L15.2445 19.4832C15.1715 19.541 15.1238 19.625 15.1115 19.7174L15.0371 20.3314L14.833 22.0564C14.8347 22.0774 14.8279 22.0982 14.8143 22.1142C14.8006 22.1302 14.7812 22.1402 14.7602 22.1419C14.7392 22.1435 14.7184 22.1368 14.7024 22.1232C14.6864 22.1095 14.6764 22.0901 14.6747 22.0691L14.1003 20.3457L13.5068 18.5811C13.4817 18.5018 13.485 18.4162 13.5162 18.3391C13.5474 18.2619 13.6045 18.1981 13.6777 18.1585L21.0272 13.9457L22.4103 13.1545C22.6113 13.0374 22.817 13.2921 22.6398 13.4377Z" fill="white"/>
</svg>
