<svg width="41" height="40" viewBox="0 0 41 40" fill="none" xmlns="http://www.w3.org/2000/svg">
<path d="M26.7502 30H26.7501C26.3204 30 25.9086 29.8644 25.5592 29.608C25.552 29.6027 25.5449 29.5973 25.5379 29.5918L20.3429 25.551L18.1944 27.6014C17.8508 27.9452 17.396 28.1343 16.9117 28.1343C16.1122 28.1343 15.4138 27.6229 15.1741 26.8617C15.1698 26.8481 15.1658 26.8345 15.1621 26.8208L13.9084 22.1261L9.94418 20.9556C9.24535 20.7493 8.77363 20.1455 8.74281 19.4175C8.71193 18.6893 9.1309 18.0477 9.81011 17.783L29.4325 10.1363C29.6616 10.0464 29.9054 10.0002 30.1515 10C30.7456 10 31.3033 10.2671 31.6817 10.7327C32.0562 11.1936 32.2009 11.793 32.0787 12.3772L28.7284 28.3944C28.5339 29.3247 27.7019 30 26.7502 30ZM26.704 28.0603C26.7196 28.0706 26.7338 28.075 26.7502 28.075C26.7582 28.075 26.8291 28.073 26.8444 28.0003L30.1946 11.983C30.1983 11.965 30.1969 11.9578 30.1877 11.9465C30.1777 11.9341 30.162 11.9248 30.1514 11.9248C30.1445 11.9253 30.1377 11.9269 30.1314 11.9297L11.1823 19.314L14.9713 20.4328C15.1295 20.4796 15.273 20.5662 15.3881 20.6843C15.5032 20.8025 15.5861 20.9482 15.6286 21.1076L16.9654 26.1132L19.6141 23.5855C19.7811 23.4262 19.9996 23.3322 20.2301 23.3205C20.4605 23.3089 20.6874 23.3804 20.8695 23.5221L26.704 28.0603Z" fill="white"/>
<path d="M18.0238 26.9058C18.0541 27.0036 19.1568 25.6252 19.1685 25.5233L18.6739 23.102C18.6419 22.9454 18.653 22.7832 18.706 22.6324C18.7589 22.4817 18.8518 22.3482 18.9746 22.2461L28.0405 14.7127C28.2586 14.5196 28.0052 14.1792 27.7578 14.3325L17.0969 20.8348C16.9735 20.9101 16.876 21.0212 16.8175 21.1534C16.759 21.2856 16.7423 21.4325 16.7696 21.5745L18.0238 26.9058Z" fill="white"/>
</svg>
