<svg width="40" height="40" viewBox="0 0 40 40" fill="none" xmlns="http://www.w3.org/2000/svg">
<path d="M27.4488 31.7887H27.4487C26.9422 31.7887 26.4566 31.6288 26.0449 31.3266C26.0363 31.3203 26.028 31.314 26.0197 31.3075L19.8956 26.5439L17.3627 28.9611C16.9577 29.3664 16.4216 29.5892 15.8506 29.5892C14.9081 29.5892 14.0849 28.9864 13.8022 28.0891C13.7972 28.073 13.7924 28.057 13.7881 28.0409L12.3102 22.5064L7.63688 21.1266C6.81306 20.8834 6.25696 20.1716 6.22063 19.3134C6.18423 18.4549 6.67813 17.6986 7.47884 17.3866L30.6109 8.37211C30.8809 8.26617 31.1684 8.21169 31.4584 8.21149C32.1588 8.21149 32.8163 8.52633 33.2624 9.07524C33.7038 9.6186 33.8745 10.3252 33.7304 11.0138L29.7809 29.8959C29.5516 30.9926 28.5708 31.7887 27.4488 31.7887ZM27.3944 29.502C27.4127 29.5141 27.4295 29.5194 27.4488 29.5194C27.4582 29.5194 27.5418 29.517 27.5599 29.4313L31.5092 10.5492C31.5137 10.528 31.512 10.5195 31.5012 10.5061C31.4894 10.4916 31.4709 10.4805 31.4584 10.4805C31.4502 10.4811 31.4422 10.4831 31.4348 10.4863L9.09649 19.1914L13.5631 20.5103C13.7496 20.5654 13.9188 20.6675 14.0545 20.8068C14.1902 20.9461 14.2879 21.1179 14.3381 21.3058L15.9139 27.2067L19.0364 24.2269C19.2332 24.0391 19.4908 23.9282 19.7625 23.9145C20.0341 23.9008 20.3017 23.9851 20.5163 24.1521L27.3944 29.502Z" fill="#0D593B"/>
<path d="M17.1616 28.1413C17.1972 28.2566 18.4971 26.6316 18.511 26.5115L17.9279 23.6571C17.8902 23.4726 17.9033 23.2813 17.9657 23.1036C18.0282 22.9259 18.1376 22.7685 18.2825 22.6481L28.9698 13.7673C29.227 13.5398 28.9282 13.1384 28.6366 13.3191L16.0689 20.9845C15.9234 21.0732 15.8085 21.2042 15.7395 21.3601C15.6706 21.5159 15.6508 21.6891 15.683 21.8564L17.1616 28.1413Z" fill="#0D593B"/>
</svg>
