<svg width="41" height="40" viewBox="0 0 41 40" fill="none" xmlns="http://www.w3.org/2000/svg">
<path d="M26.7506 30H26.7506C26.3209 30 25.9091 29.8644 25.5597 29.608C25.5525 29.6027 25.5454 29.5973 25.5384 29.5918L20.3434 25.551L18.1949 27.6014C17.8513 27.9452 17.3965 28.1343 16.9121 28.1343C16.1126 28.1343 15.4143 27.6229 15.1746 26.8617C15.1703 26.8481 15.1663 26.8345 15.1626 26.8208L13.9089 22.1261L9.94467 20.9556C9.24584 20.7493 8.77411 20.1455 8.7433 19.4175C8.71241 18.6893 9.13138 18.0477 9.8106 17.783L29.433 10.1363C29.662 10.0464 29.9059 10.0002 30.152 10C30.7461 10 31.3038 10.2671 31.6822 10.7327C32.0567 11.1936 32.2014 11.793 32.0792 12.3772L28.7289 28.3944C28.5344 29.3247 27.7024 30 26.7506 30ZM26.7045 28.0603C26.7201 28.0706 26.7343 28.075 26.7506 28.075C26.7587 28.075 26.8296 28.073 26.8449 28.0003L30.195 11.983C30.1988 11.965 30.1974 11.9578 30.1882 11.9465C30.1782 11.9341 30.1625 11.9248 30.1519 11.9248C30.145 11.9253 30.1382 11.9269 30.1319 11.9297L11.1828 19.314L14.9718 20.4328C15.13 20.4796 15.2735 20.5662 15.3886 20.6843C15.5037 20.8025 15.5865 20.9482 15.6291 21.1076L16.9659 26.1132L19.6146 23.5855C19.7815 23.4262 20.0001 23.3322 20.2305 23.3205C20.461 23.3089 20.6879 23.3804 20.87 23.5221L26.7045 28.0603Z" fill="white"/>
<path d="M18.0247 26.9058C18.0549 27.0036 19.1576 25.6252 19.1693 25.5233L18.6748 23.102C18.6428 22.9454 18.6539 22.7832 18.7068 22.6324C18.7598 22.4817 18.8526 22.3482 18.9755 22.2461L28.0413 14.7127C28.2595 14.5196 28.0061 14.1792 27.7587 14.3325L17.0978 20.8348C16.9744 20.9101 16.8769 21.0212 16.8184 21.1534C16.7599 21.2856 16.7432 21.4325 16.7704 21.5745L18.0247 26.9058Z" fill="white"/>
</svg>
