<svg width="41" height="40" viewBox="0 0 41 40" fill="none" xmlns="http://www.w3.org/2000/svg">
<path d="M20.824 29C24.9904 29 23.5048 26.3624 23.8264 25.604C23.8216 25.0376 23.8168 24.4928 23.836 24.1616C24.1 24.236 24.7228 24.5516 26.0092 25.802C27.9952 27.806 28.5028 29 30.1072 29H33.0604C33.9964 29 34.4836 28.6124 34.7272 28.2872C34.9624 27.9728 35.1928 27.4208 34.9408 26.5616C34.282 24.4928 30.4396 20.9204 30.2008 20.5436C30.2395 20.4721 30.2807 20.4021 30.3244 20.3336H30.322C31.0804 19.3316 33.9748 14.9948 34.4008 13.2596C34.4023 13.2566 34.4031 13.2533 34.4032 13.25C34.6336 12.458 34.4224 11.9444 34.204 11.654C33.8752 11.2196 33.352 11 32.6452 11H29.692C28.7032 11 27.9532 11.498 27.574 12.4064C26.9392 14.0204 25.156 17.3396 23.8192 18.5144C23.7894 17.2213 23.7922 15.9277 23.8276 14.6348C23.8708 12.7928 24.01 11 22.0984 11H17.4568C16.2592 11 15.1132 12.308 16.354 13.8608C17.4388 15.2216 16.744 15.98 16.978 19.7552C16.066 18.7772 14.4436 16.136 13.2964 12.7604C12.9748 11.8472 12.4876 11.0012 11.116 11.0012H8.1628C6.9652 11.0012 6.25 11.654 6.25 12.7472C6.25 15.2024 11.6848 29 20.824 29ZM11.116 12.8012C11.3764 12.8012 11.4028 12.8012 11.596 13.3496C12.7708 16.8092 15.406 21.9284 17.3308 21.9284C18.7768 21.9284 18.7768 20.4464 18.7768 19.8884L18.7756 15.446C18.6964 13.976 18.1612 13.244 17.8096 12.8L22.0192 12.8048C22.0216 12.8252 21.9952 17.7188 22.0312 18.9044C22.0312 20.588 23.368 21.5528 25.4548 19.4408C27.6568 16.9556 29.1796 13.2404 29.2408 13.0892C29.3308 12.8732 29.4088 12.8 29.692 12.8H32.6572L32.6548 12.8108C32.3848 14.0708 29.7196 18.086 28.828 19.3328L28.7872 19.3928C28.3948 20.0336 28.0756 20.7416 28.8412 21.7376C28.9108 21.8216 29.0932 22.0184 29.3572 22.292C30.178 23.1392 32.9932 26.036 33.2428 27.188C33.0772 27.2144 32.8972 27.1952 30.1072 27.2012C29.5132 27.2012 29.0488 26.3132 27.2764 24.5252C25.6828 22.9748 24.6484 22.3412 23.7064 22.3412C21.8776 22.3412 22.0108 23.8256 22.0276 25.6208C22.0336 27.5672 22.0216 26.9516 22.0348 27.074C21.928 27.116 21.622 27.2 20.824 27.2C13.21 27.2 8.2516 15.1148 8.0608 12.8048C8.1268 12.7988 9.0352 12.8024 11.116 12.8012Z" fill="white"/>
</svg>
