<svg width="36" height="35" viewBox="0 0 36 35" fill="none" xmlns="http://www.w3.org/2000/svg">
<rect x="0.423828" width="35" height="35" rx="2" fill="#269F2E"/>
<path d="M23.7097 11.7114C22.3442 10.3322 20.5308 9.48643 18.5965 9.32656C16.6623 9.16669 14.7346 9.70328 13.1611 10.8395C11.5877 11.9758 10.4721 13.6369 10.0155 15.5233C9.55896 17.4097 9.79152 19.3971 10.6713 21.1271L9.80769 25.3196C9.79873 25.3614 9.79847 25.4045 9.80694 25.4463C9.81541 25.4882 9.83242 25.5278 9.85691 25.5627C9.89278 25.6158 9.94398 25.6566 10.0037 25.6798C10.0634 25.703 10.1287 25.7074 10.191 25.6925L14.3 24.7186C16.0252 25.576 17.9986 25.7936 19.8691 25.3327C21.7396 24.8717 23.3859 23.7621 24.5151 22.2012C25.6442 20.6403 26.183 18.7295 26.0356 16.8087C25.8881 14.8878 25.0639 13.0816 23.7097 11.7114ZM22.4286 21.937C21.4837 22.8791 20.2671 23.5011 18.9501 23.7151C17.6331 23.9292 16.2821 23.7246 15.0875 23.1301L14.5148 22.8468L11.9957 23.4434L12.0031 23.412L12.5252 20.8765L12.2448 20.3232C11.6344 19.1244 11.4191 17.7633 11.6297 16.4347C11.8402 15.1061 12.4659 13.8782 13.4171 12.927C14.6122 11.7322 16.2329 11.061 17.9228 11.061C19.6127 11.061 21.2334 11.7322 22.4286 12.927C22.4387 12.9386 22.4497 12.9496 22.4614 12.9598C23.6417 14.1576 24.3006 15.7735 24.2945 17.4551C24.2883 19.1368 23.6176 20.7478 22.4286 21.937Z" fill="white"/>
<path d="M22.2058 20.0771C21.8971 20.5633 21.4094 21.1584 20.7964 21.3061C19.7225 21.5656 18.0745 21.315 16.0237 19.4029L15.9983 19.3806C14.1951 17.7086 13.7268 16.3171 13.8401 15.2134C13.9028 14.587 14.4248 14.0202 14.8648 13.6503C14.9344 13.5909 15.0168 13.5487 15.1057 13.5269C15.1945 13.5051 15.2872 13.5044 15.3763 13.5248C15.4654 13.5453 15.5486 13.5863 15.619 13.6446C15.6895 13.7029 15.7453 13.7769 15.7821 13.8606L16.4458 15.3521C16.4889 15.4488 16.5049 15.5554 16.492 15.6605C16.4791 15.7656 16.4379 15.8652 16.3727 15.9487L16.0371 16.3842C15.9651 16.4741 15.9216 16.5835 15.9123 16.6984C15.903 16.8132 15.9283 16.9282 15.9849 17.0285C16.1728 17.3581 16.6232 17.8429 17.1229 18.2918C17.6837 18.7989 18.3056 19.2627 18.6994 19.4208C18.8047 19.4639 18.9206 19.4744 19.032 19.451C19.1433 19.4276 19.2452 19.3714 19.3243 19.2896L19.7136 18.8973C19.7887 18.8233 19.8821 18.7704 19.9843 18.7442C20.0865 18.718 20.1938 18.7194 20.2953 18.7482L21.8718 19.1956C21.9587 19.2223 22.0384 19.2685 22.1048 19.3307C22.1712 19.3929 22.2224 19.4695 22.2547 19.5545C22.2869 19.6396 22.2993 19.7309 22.2908 19.8215C22.2823 19.912 22.2533 19.9995 22.2058 20.0771Z" fill="white"/>
</svg>
