<svg width="40" height="40" viewBox="0 0 40 40" fill="none" xmlns="http://www.w3.org/2000/svg">
<path fill-rule="evenodd" clip-rule="evenodd" d="M22.9845 21.4614C22.5114 21.6548 22.2091 22.3955 21.9025 22.7739C21.7453 22.9678 21.5578 22.998 21.3161 22.9009C19.5402 22.1934 18.1788 21.0083 17.1989 19.374C17.0329 19.1206 17.0626 18.9204 17.2628 18.6851C17.5587 18.3364 17.9308 17.9404 18.0109 17.4707C18.1886 16.4316 16.8302 13.2085 15.0363 14.6689C9.87416 18.8755 23.6476 30.0322 26.1334 23.998C26.8366 22.2876 23.7687 21.1401 22.9845 21.4614ZM20.0001 30.3164C18.1745 30.3164 16.3781 29.8311 14.8053 28.9121C14.5529 28.7642 14.2477 28.7251 13.9655 28.8018L10.548 29.7397L11.7384 27.1172C11.818 26.9421 11.8499 26.7491 11.8309 26.5577C11.8119 26.3663 11.7426 26.1833 11.63 26.0273C10.3566 24.2622 9.68324 22.1782 9.68324 20C9.68324 14.311 14.3112 9.68311 20.0001 9.68311C25.6891 9.68311 30.3165 14.311 30.3165 20C30.3165 25.6885 25.6886 30.3164 20.0001 30.3164ZM20.0001 7.5C13.1076 7.5 7.50014 13.1074 7.50014 20C7.50014 22.4248 8.18861 24.7534 9.49672 26.7744L7.59779 30.9565C7.51199 31.1454 7.48175 31.3549 7.51064 31.5603C7.53952 31.7658 7.62632 31.9588 7.76088 32.1167C7.86351 32.2368 7.99093 32.3333 8.1344 32.3994C8.27786 32.4656 8.43395 32.4999 8.59193 32.5C9.29604 32.5 13.1354 31.2935 14.1124 31.0254C15.9186 31.9917 17.9445 32.5 20.0001 32.5C26.8922 32.5 32.5001 26.8921 32.5001 20C32.5001 13.1074 26.8922 7.5 20.0001 7.5Z" fill="#0D593B"/>
</svg>
