<svg width="50" height="35" viewBox="0 0 50 35" fill="none" xmlns="http://www.w3.org/2000/svg">
<rect x="0.0507812" width="49.9487" height="35" rx="3" fill="url(#paint0_linear_128_770)"/>
<path d="M14.3585 23.6923L11.0508 11.3077H13.2303L15.7687 20.8205L18.4867 11.3077H20.5123L23.2559 20.8718L25.82 11.3077H27.9995L24.6662 23.6667H22.1533L19.5123 14.4359L16.8713 23.6667L14.3585 23.6923Z" fill="white"/>
<path d="M39 20.141C39 21.1666 38.641 21.9872 37.9231 22.6538C37.2051 23.3205 36.3333 23.6795 35.2821 23.6795H30V11.3205H34.8974C35.9231 11.3205 36.7692 11.6538 37.4615 12.2949C38.1795 12.9615 38.5128 13.7564 38.5128 14.7307C38.5128 15.8077 38.0769 16.6538 37.2564 17.2436C38.359 17.8333 39 18.859 39 20.141ZM32.0256 13.2436V16.5H34.8974C35.7949 16.5 36.4872 15.782 36.4872 14.8846C36.4872 13.9615 35.7949 13.2692 34.8974 13.2692H32.0256V13.2436ZM35.3077 21.782C36.2564 21.782 37 21.0128 37 20.0384C37 19.0641 36.2564 18.3205 35.3077 18.3205H32.0513V21.782H35.3077Z" fill="white"/>
<defs>
<linearGradient id="paint0_linear_128_770" x1="0.0507813" y1="17.5" x2="48.853" y2="17.5731" gradientUnits="userSpaceOnUse">
<stop stop-color="#BA1080"/>
<stop offset="1" stop-color="#4A287A"/>
</linearGradient>
</defs>
</svg>
