<svg width="41" height="40" viewBox="0 0 41 40" fill="none" xmlns="http://www.w3.org/2000/svg">
<path d="M25.4241 18.7899L18.7154 15.1192C18.3296 14.9082 17.8737 14.916 17.4956 15.1401C17.1173 15.3643 16.8916 15.7605 16.8916 16.2002V23.4786C16.8916 23.9163 17.1159 24.3118 17.4917 24.5362C17.6879 24.6534 17.9054 24.7123 18.1235 24.7123C18.3275 24.712 18.5282 24.661 18.7075 24.5638L25.4165 20.9564C25.6119 20.8513 25.7753 20.6955 25.8895 20.5052C26.0037 20.315 26.0644 20.0974 26.0651 19.8756C26.066 19.6536 26.0069 19.4356 25.8941 19.2445C25.7813 19.0534 25.6189 18.8963 25.4241 18.7899ZM18.6711 22.563V17.1233L23.6852 19.8667L18.6711 22.563Z" fill="white"/>
<path d="M35.7098 14.0768L35.7085 14.063C35.6827 13.8186 35.4267 11.6445 34.3698 10.5387C33.1482 9.23803 31.7631 9.08003 31.0971 9.00429C31.0468 8.99874 30.9965 8.99271 30.9463 8.9862L30.8932 8.98069C26.8788 8.68877 20.816 8.64891 20.7553 8.64867L20.75 8.64844L20.7446 8.64867C20.684 8.64891 14.6212 8.68877 10.5705 8.98069L10.517 8.9862C10.4739 8.99202 10.4264 8.99735 10.3747 9.0034C9.71635 9.07932 8.34619 9.23762 7.12109 10.5852C6.11444 11.6793 5.82346 13.8068 5.79357 14.0458L5.79013 14.0768C5.78106 14.1786 5.56677 16.5999 5.56677 19.0306V21.3029C5.56677 23.7337 5.78106 26.1549 5.79013 26.2569L5.79173 26.2721C5.81747 26.5126 6.07322 28.6468 7.12525 29.7531C8.27395 31.0102 9.72632 31.1765 10.5075 31.266C10.631 31.2801 10.7374 31.2921 10.8098 31.3049L10.8801 31.3146C13.198 31.5352 20.4655 31.6438 20.7736 31.6482L20.7829 31.6484L20.7921 31.6482C20.8528 31.648 26.9154 31.6081 30.9299 31.3162L30.9829 31.3107C31.0337 31.3039 31.0907 31.2979 31.1532 31.2914C31.808 31.2219 33.1707 31.0776 34.3789 29.7482C35.3855 28.654 35.6767 26.5265 35.7064 26.2876L35.7098 26.2566C35.7189 26.1547 35.9334 23.7336 35.9334 21.3029V19.0306C35.9332 16.5998 35.7189 14.1788 35.7098 14.0768ZM34.1537 21.3029C34.1537 23.5527 33.9572 25.8697 33.9387 26.0824C33.8632 26.6683 33.5561 28.0143 33.0657 28.5474C32.3095 29.3794 31.5327 29.4619 30.9655 29.5219C30.9023 29.5284 30.8391 29.5355 30.776 29.5432C26.8931 29.824 21.0593 29.867 20.7905 29.8687C20.4891 29.8643 13.3279 29.7547 11.0807 29.546C10.9655 29.5272 10.8411 29.5128 10.71 29.498C10.0449 29.4218 9.13435 29.3175 8.43426 28.5474L8.41777 28.5298C7.93589 28.0278 7.63774 26.7691 7.56194 26.0893C7.54782 25.9286 7.34629 23.5842 7.34629 21.3029V19.0306C7.34629 16.7834 7.54231 14.4689 7.56129 14.2518C7.65144 13.5616 7.96418 12.2972 8.43426 11.786C9.21359 10.9288 10.0354 10.8339 10.5789 10.7711C10.6308 10.765 10.6792 10.7595 10.7239 10.7537C14.6633 10.4715 20.5391 10.4296 20.75 10.428C20.9608 10.4293 26.8345 10.4715 30.739 10.7537C30.7869 10.7597 30.8393 10.7657 30.8956 10.7722C31.4546 10.8359 32.2995 10.9323 33.075 11.7594L33.0821 11.767C33.5641 12.2691 33.8622 13.5498 33.938 14.2432C33.9514 14.395 34.1537 16.7444 34.1537 19.0306V21.3029Z" fill="white"/>
</svg>
